HIERARCHY
ROOT Hips
{
	OFFSET 3.005370 105.437782 -1.111724
	CHANNELS 6 Xposition Yposition Zposition Xrotation Yrotation Zrotation
	JOINT Chest
	{
		OFFSET -0.015421 13.530762 1.752870
		CHANNELS 3 Xrotation Yrotation Zrotation
		JOINT Chest2
		{
			OFFSET -0.994675 21.291466 2.179561
			CHANNELS 3 Xrotation Yrotation Zrotation
			JOINT Chest3
			{
				OFFSET -0.709015 14.903687 -0.444165
				CHANNELS 3 Xrotation Yrotation Zrotation
				JOINT Neck
				{
					OFFSET 0.215799 17.223877 1.381097
					CHANNELS 3 Xrotation Yrotation Zrotation
					JOINT Head
					{
						OFFSET -0.511241 10.390045 1.270218
						CHANNELS 3 Xrotation Yrotation Zrotation
						End Site
						{
							OFFSET -0.507204 10.398834 1.197781
						}
					}
				}
				JOINT LeftCollar
				{
					OFFSET 4.514206 12.947418 3.713563
					CHANNELS 3 Xrotation Yrotation Zrotation
					JOINT LeftUpArm
					{
						OFFSET 14.281279 -5.354248 -8.710713
						CHANNELS 3 Xrotation Yrotation Zrotation
						JOINT LeftLowArm
						{
							OFFSET 4.226295 -33.489868 0.544033
							CHANNELS 3 Xrotation Yrotation Zrotation
							JOINT LeftHand
							{
								OFFSET -1.240549 -28.318573 9.872536
								CHANNELS 3 Xrotation Yrotation Zrotation
								End Site
								{
									OFFSET -0.271132 -6.189194 2.157691
								}
							}
						}
					}
				}
				JOINT RightCollar
				{
					OFFSET -3.890924 13.018127 4.147021
					CHANNELS 3 Xrotation Yrotation Zrotation
					JOINT RightUpArm
					{
						OFFSET -14.228228 -5.878799 -8.455387
						CHANNELS 3 Xrotation Yrotation Zrotation
						JOINT RightLowArm
						{
							OFFSET -4.689894 -33.430374 0.387031
							CHANNELS 3 Xrotation Yrotation Zrotation
							JOINT RightHand
							{
								OFFSET 2.299372 -27.935440 10.736828
								CHANNELS 3 Xrotation Yrotation Zrotation
								End Site
								{
									OFFSET 0.502548 -6.105568 2.346645
								}
							}
						}
					}
				}
			}
		}
	}
	JOINT LeftUpLeg
	{
		OFFSET 10.017770 -0.021301 0.250938
		CHANNELS 3 Xrotation Yrotation Zrotation
		JOINT LeftLowLeg
		{
			OFFSET 4.459110 -46.858879 -5.324535
			CHANNELS 3 Xrotation Yrotation Zrotation
			JOINT LeftFoot
			{
				OFFSET 1.412485 -43.149414 -11.691901
				CHANNELS 3 Xrotation Yrotation Zrotation
				JOINT LeftToe
				{
					OFFSET 4.078165 -16.149529 16.796448
					CHANNELS 3 Xrotation Yrotation Zrotation
					End Site
					{
						OFFSET 4.831358 -1.525226 23.106071
					}
				}
			}
		}
	}
	JOINT RightUpLeg
	{
		OFFSET -10.017774 0.021103 -0.250964
		CHANNELS 3 Xrotation Yrotation Zrotation
		JOINT RightLowLeg
		{
			OFFSET -1.494355 -47.018276 -5.573215
			CHANNELS 3 Xrotation Yrotation Zrotation
			JOINT RightFoot
			{
				OFFSET 1.336164 -42.503647 -13.864861
				CHANNELS 3 Xrotation Yrotation Zrotation
				JOINT RightToe
				{
					OFFSET -4.617359 -17.622408 15.089316
					CHANNELS 3 Xrotation Yrotation Zrotation
					End Site
					{
						OFFSET -7.720851 -3.623409 22.063896
					}
				}
			}
		}
	}
}
MOTION
Frames: 6
Frame Time: 0.033333
3.005370 105.437790 -1.111722 0.000000 -0.000000 0.000000 0.000000 0.000000 0.000000 0.000001 0.000000 -0.000000 -0.000001 -0.000000 0.000000 -0.000000 0.000000 -0.000000 -0.000001 0.000000 -0.000000 -0.000000 0.000000 0.000001 0.000000 -0.000000 0.000001 0.000003 0.000002 -0.000001 -0.000000 0.000004 0.000000 -0.000001 -0.000000 0.000000 0.000001 -0.000001 -0.000002 0.000001 -0.000000 -0.000000 -0.000001 -0.000000 -0.000000 0.000000 -0.000000 -0.000000 0.000000 -0.000000 -0.000000 0.000001 0.000000 0.000000 0.000000 0.000000 0.000000 -0.000000 -0.000000 0.000000 0.000000 -0.000001 0.000000 -0.000000 0.000000 -0.000001 -0.000001 -0.000002 -0.000001 
3.005696 105.439964 -1.112553 -0.262915 0.071909 -0.058464 0.285433 -0.005878 0.018736 0.031308 0.008148 -0.013637 -0.088892 -0.075814 0.058058 0.113427 0.127926 -0.087306 -0.000000 0.000000 -0.000000 -0.115236 0.751326 0.003234 -0.002055 0.062770 -0.082025 0.161643 0.035228 -0.161387 0.000000 0.000006 -0.000001 -0.008024 0.004885 0.030547 -0.013628 -0.009774 -0.092609 0.169139 -0.072810 0.137661 -0.000001 -0.000001 0.000000 0.259214 0.027733 -0.001108 -0.022884 0.030218 0.071392 0.031776 -0.176139 -0.090990 -0.000000 -0.000001 -0.000000 -0.038121 -0.027083 0.129679 0.189989 0.045928 -0.178447 0.085723 0.398587 0.152621 0.000001 -0.000000 -0.000000 
3.004747 105.440269 -1.112543 -0.353071 0.138459 -0.172138 0.142677 -0.028215 0.114201 0.840943 -0.041802 0.022286 -0.622465 -1.083138 -0.002478 0.172369 0.497371 -0.552395 -0.000001 0.000000 -0.000000 -0.081004 1.452641 0.046897 -0.108091 -0.124782 -0.110156 0.290831 -0.123304 0.082372 -0.000003 0.000003 0.000002 0.473401 2.722746 0.054761 -0.274754 0.346208 0.153905 -0.259338 -0.061690 -0.990403 0.000001 0.000002 0.000000 -0.109037 0.066099 0.048974 0.665352 -0.099529 0.182783 -0.232159 -0.100002 -0.018852 0.000001 0.000000 -0.000000 -0.031667 -0.043118 0.265502 0.406729 0.051601 -0.209211 0.089262 0.455059 0.049025 -0.000000 0.000003 0.000001 
3.013220 105.433395 -1.105478 0.020419 0.208674 -0.144325 -0.524463 -0.012579 0.093662 1.735031 -0.096158 0.056796 -1.056142 -1.429251 -0.012719 0.015779 0.630540 -0.857986 -0.000000 0.000000 -0.000000 -0.080792 1.777906 -0.054273 -0.082727 -0.157743 0.010561 0.127203 -0.389740 -0.024215 0.000000 0.000005 0.000002 0.702760 3.843936 0.091197 -0.531637 0.599115 0.138088 -0.004622 0.169748 -1.395082 -0.000003 0.000002 -0.000001 -0.363187 0.150373 -0.040026 0.710310 -0.079973 0.262990 -0.226758 -0.124319 -0.076297 0.000000 0.000000 -0.000000 -0.171131 -0.061783 0.159265 0.351025 -0.043302 -0.136385 0.031135 0.657786 -0.017590 -0.000001 -0.000002 0.000000 
3.023070 105.434357 -1.100144 0.014007 0.144807 -0.173743 0.248732 -0.013881 0.059657 0.638215 -0.092840 0.110300 -0.651916 -0.748351 -0.029084 0.123031 0.362260 -0.437487 -0.000000 -0.000000 0.000000 -0.022093 1.028845 -0.048866 0.062982 -0.101422 0.079111 -0.059858 -0.363441 -0.155450 0.000002 0.000007 0.000001 0.487153 2.656561 0.094669 -0.168375 0.329004 0.080829 -0.367618 0.213863 -0.984089 0.000001 0.000001 0.000002 -0.376612 0.041830 0.007284 0.969190 -0.118492 0.121143 -0.195644 0.084218 0.028360 0.000000 0.000000 -0.000000 -0.409311 -0.003941 0.167573 0.836192 0.106391 -0.111343 -0.107805 0.575417 0.083106 -0.000000 0.000001 -0.000000 
3.034565 105.432991 -1.096939 -0.523518 -0.084403 -0.166654 1.587046 -0.044942 0.011678 -1.624421 -0.060371 0.071258 0.798374 -0.472935 0.059532 0.092979 0.338223 -0.446306 -0.000001 -0.000000 -0.000000 -0.007034 1.219558 -0.066459 -0.203267 -0.357964 0.155759 0.539004 -0.371655 -0.209101 -0.000004 -0.000001 0.000001 0.450671 2.355366 0.120654 0.164973 0.162597 0.007853 -0.811658 0.252724 -0.772674 0.000002 -0.000001 -0.000001 0.014085 0.027276 -0.069019 1.083545 -0.165939 0.137064 -0.331345 0.156887 0.135039 0.000000 0.000000 -0.000000 0.176927 0.004364 0.099612 0.778231 0.055111 -0.118154 -0.217648 0.926835 0.165025 -0.000000 0.000001 -0.000002 
